PathFileType   4   (X/Y/Z)
DataRate	CameraRate	NumFrames	NumMarkers	Units	OrigDataRate	OrigDataStartFrame	OrigNumFrames
120.0	120.0	12	37	mm	120.0	22	168
Frame#	Time	midhip	hip_r	hip_l	knee_r	knee_l	ankle_r	ankle_l	midasis	asis_r	asis_l	psis_r	psis_l	epicondLat_r	epicondLat_l	epicondMed_r	epicondMed_l	malleolusLat_r	malleolusLat_l	malleolusMedv_r	malleolusMedv_l	neck	subclavicle_r	subclavicle_l	sternalnotch	xyphoidprocess	thighwand_r	thighwand_l	upperleg1_r	upperleg1_l	upperleg2_r	upperleg2_l	shankwand_r	shankwand_l	lowerleg1_r	lowerleg1_l	toe_r	toe_l
 	 	X1	Y1	Z1	X2	Y2	Z2	X3	Y3	Z3	X4	Y4	Z4	X5	Y5	Z5	X6	Y6	Z6	X7	Y7	Z7	X8	Y8	Z8	X9	Y9	Z9	X10	Y10	Z10	X11	Y11	Z11	X12	Y12	Z12	X13	Y13	Z13	X14	Y14	Z14	X15	Y15	Z15	X16	Y16	Z16	X17	Y17	Z17	X18	Y18	Z18	X19	Y19	Z19	X20	Y20	Z20	X21	Y21	Z21	X22	Y22	Z22	X23	Y23	Z23	X24	Y24	Z24	X25	Y25	Z25	X26	Y26	Z26	X27	Y27	Z27	X28	Y28	Z28	X29	Y29	Z29	X30	Y30	Z30	X31	Y31	Z31	X32	Y32	Z32	X33	Y33	Z33	X34	Y34	Z34	X35	Y35	Z35	X36	Y36	Z36	X37	Y37	Z37

	22	0.45833	223.202	828.636	-317.219	208.996	805.545	-244.748	207.666	809.557	-396.817	340.821	450.701	-204.097	210.093	431.250	-369.163	105.470	174.239	-232.100	181.484	68.919	-333.461	295.318	885.405	-316.448	292.470	881.996	-198.079	298.165	888.814	-434.817	95.619	935.365	-284.545	94.581	933.364	-339.101	341.949	457.715	-146.534	221.488	427.176	-425.886	355.335	446.704	-263.059	222.731	444.961	-306.989	89.007	184.717	-197.184	169.763	66.086	-371.600	124.032	172.985	-262.566	192.637	77.643	-309.226	161.148	1381.951	-313.552	283.818	1317.958	-261.113	285.319	1314.433	-367.325	280.850	1313.224	-313.477	319.411	1242.742	-314.581	450.815	633.263	-233.463	265.825	555.231	-517.601	372.117	660.818	-177.977	202.504	608.171	-467.374	393.259	575.147	-173.323	210.476	522.072	-448.790	123.676	253.431	-122.708	283.524	189.654	-334.151	136.729	256.667	-164.065	242.050	188.528	-343.651	147.946	86.243	-192.532	289.332	42.551	-363.862
	23	0.46667	226.816	828.267	-317.536	213.071	805.648	-244.884	211.468	809.328	-396.959	350.177	452.292	-205.254	211.858	431.177	-369.199	121.252	170.189	-232.350	181.773	69.066	-333.305	299.370	885.233	-316.917	296.735	882.088	-198.559	302.004	888.377	-435.275	99.750	935.485	-284.557	98.571	933.483	-339.082	351.355	459.206	-147.680	223.024	427.022	-425.962	362.103	448.850	-263.330	225.560	445.925	-306.189	104.734	180.230	-197.331	169.935	66.273	-371.411	139.938	168.936	-262.632	192.894	77.717	-309.028	165.808	1382.293	-314.241	288.159	1318.107	-261.143	289.878	1314.412	-368.254	285.449	1313.181	-313.839	323.681	1242.721	-314.897	457.132	636.569	-234.529	267.690	554.905	-517.731	379.203	663.161	-178.684	204.142	608.062	-467.533	400.522	577.421	-174.056	212.522	522.071	-448.425	138.119	249.551	-123.085	284.173	189.131	-334.312	151.295	253.201	-164.374	242.625	188.272	-344.065	167.544	84.633	-192.164	289.348	42.534	-363.853
	24	0.47500	230.233	827.636	-317.962	217.138	805.681	-245.009	215.239	809.092	-397.086	359.253	453.818	-206.400	213.755	431.118	-369.214	137.342	165.875	-232.496	182.011	69.211	-333.173	303.409	885.011	-317.354	301.004	882.083	-199.016	305.813	887.940	-435.692	103.872	935.576	-284.525	102.538	933.577	-339.014	360.498	460.640	-148.816	224.637	426.886	-426.027	369.354	450.840	-264.016	229.510	448.072	-304.284	120.786	175.451	-197.365	170.064	66.467	-371.249	155.186	165.352	-263.260	192.824	77.865	-308.803	170.394	1382.420	-314.560	292.614	1318.209	-261.636	294.539	1314.632	-367.992	290.037	1313.111	-314.163	328.248	1242.885	-315.006	463.381	639.755	-235.630	269.486	554.584	-517.878	385.968	665.478	-179.638	205.867	607.800	-467.909	407.731	579.442	-175.014	214.999	521.832	-447.504	152.813	245.400	-123.377	284.814	188.591	-334.460	165.172	249.619	-165.033	243.796	188.252	-344.996	187.318	82.838	-191.868	289.367	42.535	-363.832
	25	0.48333	234.126	827.565	-318.350	221.192	805.657	-245.119	218.976	808.856	-397.197	368.035	455.268	-207.530	215.760	431.069	-369.199	153.765	161.313	-232.545	182.205	69.334	-333.073	307.422	884.764	-317.758	305.264	882.005	-199.441	309.579	887.522	-436.075	107.993	935.634	-284.436	106.486	933.625	-338.899	369.362	462.003	-149.938	226.316	426.765	-426.068	377.793	453.373	-265.963	231.928	448.403	-304.057	137.187	170.398	-197.294	170.160	66.651	-371.123	170.843	161.955	-263.806	192.950	77.964	-308.765	175.020	1382.619	-314.874	297.026	1318.081	-262.163	299.354	1314.651	-367.664	294.620	1313.010	-314.451	332.743	1242.775	-315.051	469.562	642.799	-236.747	271.247	554.267	-518.040	392.109	667.702	-179.978	207.802	607.751	-468.002	415.170	581.600	-176.213	216.941	521.793	-447.404	167.768	241.004	-123.569	285.454	188.031	-334.594	179.056	245.640	-165.103	244.528	187.720	-345.834	207.268	80.867	-191.674	289.387	42.548	-363.813
	26	0.49167	238.381	827.900	-318.601	225.237	805.591	-245.210	222.690	808.621	-397.286	376.515	456.628	-208.644	217.824	431.021	-369.158	170.531	156.525	-232.515	182.367	69.422	-333.005	311.408	884.505	-318.129	309.508	881.884	-199.822	313.307	887.126	-436.436	112.119	935.656	-284.294	110.428	933.622	-338.737	377.934	463.279	-151.044	228.038	426.649	-426.084	387.143	455.962	-268.900	233.317	448.007	-304.765	153.949	165.093	-197.136	170.235	66.810	-371.031	187.941	156.983	-263.512	193.484	77.972	-308.801	179.627	1382.884	-314.893	301.930	1317.867	-262.489	303.819	1314.511	-367.926	299.214	1312.886	-314.681	337.239	1242.511	-315.539	475.636	645.664	-237.861	273.001	553.951	-518.210	397.564	669.372	-180.247	209.673	607.815	-468.396	422.355	583.828	-177.700	218.629	521.690	-447.953	182.992	236.387	-123.649	286.109	187.446	-334.716	194.380	241.070	-165.057	244.755	187.181	-345.981	227.394	78.746	-191.602	289.406	42.568	-363.810
	27	0.50000	242.376	827.873	-318.650	229.267	805.496	-245.286	226.384	808.382	-397.358	384.692	457.886	-209.747	219.888	430.965	-369.101	187.627	151.546	-232.431	182.511	69.473	-332.957	315.366	884.238	-318.473	313.728	881.734	-200.161	317.005	886.743	-436.785	116.258	935.642	-284.094	114.375	933.570	-338.529	386.207	464.453	-152.140	229.764	426.529	-426.081	395.815	457.491	-270.773	234.786	448.541	-304.273	171.066	159.570	-196.916	170.299	66.935	-370.962	204.973	151.846	-263.393	194.191	77.925	-308.896	184.052	1382.930	-314.614	306.902	1317.544	-262.836	308.203	1314.094	-368.329	303.825	1312.725	-314.877	341.788	1242.081	-316.041	481.553	648.308	-238.955	274.772	553.640	-518.378	402.815	670.451	-180.899	212.024	607.682	-468.676	428.906	585.459	-178.823	220.379	521.602	-447.810	198.478	231.578	-123.614	286.792	186.835	-334.822	209.822	236.549	-165.428	244.926	187.176	-345.940	247.698	76.519	-191.659	289.421	42.590	-363.833
	28	0.50833	246.100	827.401	-318.636	233.301	805.374	-245.333	230.060	808.129	-397.401	392.550	459.032	-210.850	221.881	430.888	-369.033	205.040	146.412	-232.304	182.653	69.487	-332.912	319.310	883.960	-318.794	317.949	881.562	-200.468	320.670	886.358	-437.120	120.412	935.588	-283.839	118.338	933.478	-338.273	394.168	465.512	-153.236	231.448	426.393	-426.061	403.309	458.112	-270.826	236.751	448.873	-303.376	188.522	153.872	-196.646	170.365	67.024	-370.898	221.975	147.283	-263.498	194.691	77.822	-308.964	188.800	1382.551	-314.744	311.194	1317.389	-262.847	312.997	1313.653	-368.759	308.426	1312.523	-315.082	346.328	1241.780	-315.912	487.260	650.694	-240.019	276.580	553.339	-518.537	408.034	671.468	-181.805	214.886	607.430	-468.025	434.924	586.790	-179.319	222.131	522.027	-447.118	214.206	226.623	-123.473	287.512	186.212	-334.911	225.073	232.150	-165.557	245.537	187.263	-345.886	268.189	74.243	-191.833	289.433	42.607	-363.885
	29	0.51667	250.153	827.263	-318.727	237.355	805.221	-245.341	233.716	807.849	-397.402	400.074	460.058	-211.956	223.759	430.787	-368.955	222.744	141.166	-232.136	182.804	69.469	-332.853	323.250	883.656	-319.096	322.199	881.360	-200.757	324.301	885.952	-437.435	124.586	935.492	-283.530	122.323	933.348	-337.971	401.804	466.447	-154.335	233.066	426.236	-426.022	409.199	459.317	-271.264	238.022	446.829	-304.476	206.289	148.052	-196.334	170.444	67.076	-370.820	239.732	142.429	-263.310	194.821	77.665	-308.840	193.850	1382.207	-315.208	315.512	1317.425	-262.500	317.747	1313.473	-369.113	313.023	1312.289	-315.296	350.859	1241.708	-315.649	492.716	652.793	-241.055	278.440	553.052	-518.677	413.729	672.838	-182.811	217.918	606.943	-467.195	440.681	588.355	-180.121	223.834	522.265	-447.479	230.138	221.573	-123.246	288.270	185.609	-334.978	240.793	227.387	-165.323	246.804	186.808	-345.202	288.866	71.979	-192.105	289.445	42.618	-363.955
	30	0.52500	254.320	827.229	-318.854	241.458	805.029	-245.299	237.370	807.533	-397.351	407.251	460.958	-213.062	225.532	430.664	-368.865	240.700	135.867	-231.924	182.965	69.422	-332.768	327.212	883.317	-319.376	326.510	881.122	-201.031	327.914	885.512	-437.720	128.786	935.349	-283.172	126.331	933.187	-337.629	409.106	467.251	-155.435	234.626	426.063	-425.963	414.947	461.101	-273.422	237.454	442.985	-307.667	224.329	142.168	-195.975	170.535	67.095	-370.716	257.531	137.817	-263.228	194.543	77.621	-308.685	198.607	1382.222	-315.497	320.214	1317.331	-262.530	322.386	1313.362	-369.293	317.655	1312.036	-315.494	355.451	1241.568	-315.767	497.900	654.586	-242.068	280.362	552.776	-518.784	419.218	674.107	-183.599	220.608	606.564	-466.881	446.426	589.570	-181.546	225.175	522.043	-449.128	246.248	216.476	-122.946	289.049	185.060	-335.019	256.337	222.411	-164.952	247.736	186.606	-345.056	309.714	69.782	-192.448	289.460	42.622	-364.025
	31	0.53333	258.173	826.750	-318.826	245.623	804.795	-245.218	241.038	807.190	-397.258	414.074	461.721	-214.163	227.240	430.530	-368.757	258.856	130.577	-231.658	183.129	69.350	-332.653	331.211	882.942	-319.634	330.895	880.835	-201.298	331.527	885.049	-437.970	133.010	935.169	-282.766	130.365	933.005	-337.257	416.070	467.919	-156.529	236.158	425.881	-425.878	421.892	462.238	-275.418	238.332	441.459	-308.952	242.601	136.289	-195.559	170.635	67.085	-370.584	275.214	133.372	-263.271	194.002	77.725	-308.596	203.065	1382.171	-315.642	325.006	1316.806	-263.292	326.580	1313.264	-369.294	322.341	1311.769	-315.658	359.823	1241.202	-316.613	502.816	656.062	-243.062	282.346	552.501	-518.844	423.940	674.803	-184.172	222.503	606.702	-466.765	452.248	590.318	-182.792	226.778	521.657	-449.694	262.523	211.375	-122.589	289.819	184.589	-335.033	271.703	217.426	-164.668	248.145	186.734	-345.465	330.701	67.698	-192.824	289.486	42.621	-364.070
	32	0.54167	261.904	826.056	-318.836	249.898	804.531	-245.081	244.748	806.835	-397.104	420.548	462.340	-215.259	228.939	430.394	-368.620	277.168	125.358	-231.314	183.294	69.258	-332.513	335.279	882.553	-319.865	335.403	880.520	-201.550	335.155	884.585	-438.179	137.258	934.964	-282.318	134.424	932.810	-336.863	422.703	468.437	-157.621	237.707	425.702	-425.761	428.233	462.630	-275.861	242.308	443.197	-307.024	261.067	130.481	-195.058	170.739	67.054	-370.428	292.738	129.167	-263.341	193.855	77.848	-308.459	207.897	1381.853	-315.399	329.663	1316.117	-263.827	331.244	1313.011	-369.330	327.055	1311.454	-315.776	364.371	1240.681	-317.186	507.491	657.216	-244.040	284.401	552.216	-518.843	428.477	675.272	-184.752	224.447	606.985	-466.704	457.657	591.066	-183.437	229.299	521.245	-448.490	278.948	206.317	-122.190	290.552	184.199	-335.026	287.072	212.839	-164.430	248.430	186.490	-345.247	351.777	65.767	-193.194	289.524	42.621	-364.074
	33	0.55000	265.850	825.593	-318.882	254.257	804.247	-244.902	248.506	806.480	-396.905	426.696	462.789	-216.356	230.684	430.272	-368.449	295.605	120.258	-230.861	183.454	69.152	-332.358	339.407	882.159	-320.062	339.998	880.186	-201.779	338.816	884.132	-438.346	141.536	934.747	-281.830	138.512	932.607	-336.450	429.025	468.785	-158.714	239.317	425.539	-425.608	432.783	462.833	-276.147	245.869	443.991	-305.869	279.697	124.804	-194.443	170.838	67.014	-370.257	310.376	125.073	-263.246	194.016	77.921	-308.259	213.057	1381.371	-314.956	334.526	1315.911	-263.726	336.590	1312.579	-369.519	331.763	1311.055	-315.836	369.550	1240.394	-316.925	511.958	658.048	-245.005	286.537	551.908	-518.771	433.157	675.617	-185.554	227.063	606.928	-466.572	462.318	591.584	-184.097	231.945	520.882	-447.718	295.508	201.351	-121.764	291.235	183.875	-335.013	302.701	208.458	-164.020	249.406	186.361	-345.179	372.877	64.022	-193.531	289.571	42.627	-364.032
